<svg width="261" height="195" viewBox="0 0 261 195" fill="none" xmlns="http://www.w3.org/2000/svg">
<defs>
<filter id="dropShadow" x="-50%" y="-50%" width="200%" height="200%">
<feGaussianBlur in="SourceAlpha" stdDeviation="3"/>
<feOffset dx="2" dy="3" result="offsetblur"/>
<feComponentTransfer>
<feFuncA type="linear" slope="0.4"/>
</feComponentTransfer>
<feMerge>
<feMergeNode/>
<feMergeNode in="SourceGraphic"/>
</feMerge>
</filter>
</defs>
<g filter="url(#dropShadow)">
<path d="M0 0H156L216 33L230.652 116.917C235.502 144.696 245.818 171.236 261 195H39C25.8551 175.283 17.5863 152.723 14.8754 129.181L0 0Z" fill="#16C925"/>
<path d="M184.871 45.4793L156 0L216 33L184.871 45.4793Z" fill="#0F9E1B"/>
<path d="M38.9032 69.54C42.1653 65.4228 46.8445 63.2577 52.9408 63.0448C56.1888 62.9314 60.0507 63.4312 64.5264 64.5443C65.54 65.1435 66.1541 65.8544 66.3688 66.6769C66.5834 67.4993 66.398 68.2381 65.8126 68.8932C65.2145 69.5 64.3408 69.8234 63.1915 69.8635C60.2165 69.2839 57.6047 69.0334 55.356 69.1119C49.9094 69.3021 46.2158 70.9934 44.2755 74.1856C42.2978 77.4281 42.0981 82.073 43.6762 88.1205C45.2795 94.2647 48.1721 98.9726 52.3538 102.244C54.5199 103.975 56.7772 104.799 59.1258 104.717C61.3744 104.639 64.8065 103.298 69.4221 100.696C71.0563 99.8089 72.1483 99.3558 72.698 99.3366C73.9972 99.2913 74.8172 99.9217 75.1581 101.228C75.499 102.534 75.1584 103.645 74.1364 104.559C70.5818 106.782 67.6189 108.375 65.2477 109.337C63.0385 110.146 61.0595 110.581 59.3106 110.642C55.7128 110.768 52.3051 109.593 49.0875 107.118C43.3157 102.584 39.3566 96.2047 37.2104 87.9801C35.0641 79.7555 35.6284 73.6088 38.9032 69.54Z" fill="black"/>
<path d="M82.3561 105.956L80.5965 99.7931L79.1943 94.1301L71.9531 63.7723C71.8016 63.1918 72.0065 62.7208 72.5677 62.3595C73.1289 61.9981 73.9092 61.8 74.9086 61.7651C77.3072 61.6813 78.7211 62.4619 79.1503 64.1068L81.4323 76.33C82.9658 84.3318 83.8777 88.8891 84.1681 90.0019L86.1754 97.6943C87.1223 101.323 87.8898 103.298 88.4778 103.619C89.3904 103.831 90.2965 103.921 91.1959 103.89L101.8 102.787C104.149 102.705 105.537 103.487 105.967 105.132C106.295 106.39 105.898 107.38 104.775 108.103C103.902 108.621 102.96 108.972 101.948 109.153C100.974 109.285 99.6128 109.381 97.8638 109.442C89.2691 109.743 84.5838 109.662 83.8079 109.201C83.445 108.97 82.961 107.888 82.3561 105.956Z" fill="black"/>
<path d="M106.679 61.7541C107.878 61.7122 108.748 62.2433 109.288 63.3473L116.159 88.5186C117.863 95.0499 119.172 100.838 120.085 105.884C120.175 106.613 119.871 107.283 119.173 107.893C118.512 108.453 117.757 108.748 116.907 108.777C115.508 108.826 114.626 108.149 114.26 106.746C113.547 102.084 112.232 96.0765 110.313 88.7227L103.5 64.355C103.448 63.7709 103.753 63.1989 104.414 62.6388C105.124 62.0769 105.879 61.782 106.679 61.7541Z" fill="black"/>
<path d="M125.496 66.5161C128.758 62.3989 133.437 60.2338 139.534 60.021C142.782 59.9075 146.643 60.4073 151.119 61.5204C152.133 62.1197 152.747 62.8305 152.961 63.653C153.176 64.4754 152.991 65.2142 152.405 65.8693C151.807 66.4761 150.934 66.7995 149.784 66.8396C146.809 66.26 144.197 66.0095 141.949 66.088C136.502 66.2782 132.809 67.9695 130.868 71.1618C128.891 74.4042 128.691 79.0491 130.269 85.0966C131.872 91.2408 134.765 95.9487 138.947 99.2201C141.113 100.951 143.37 101.775 145.719 101.693C147.967 101.615 151.399 100.274 156.015 97.6721C157.649 96.785 158.741 96.3319 159.291 96.3127C160.59 96.2674 161.41 96.8978 161.751 98.2041C162.092 99.5103 161.751 100.621 160.729 101.535C157.175 103.759 154.212 105.351 151.84 106.313C149.631 107.122 147.652 107.557 145.903 107.618C142.305 107.744 138.898 106.569 135.68 104.094C129.908 99.5601 125.949 93.1808 123.803 84.9562C121.657 76.7317 122.221 70.585 125.496 66.5161Z" fill="black"/>
<path d="M175.274 106.593C173.825 106.643 172.93 105.82 172.588 104.124L171.111 98.4631C170.025 94.3024 168.134 88.0217 165.437 79.6211C162.614 70.5414 160.744 64.9191 159.826 62.7542C159.548 61.6898 159.683 60.7575 160.23 59.9573C160.765 59.1087 161.507 58.6678 162.457 58.6346C163.706 58.591 164.695 59.2888 165.423 60.7279C167.347 65.2011 169.665 72.1504 172.377 81.5757C175.602 77.7039 178.178 74.1476 180.106 70.907C181.748 68.1157 183.418 64.3714 185.117 59.6741C185.625 58.3382 186.629 57.644 188.128 57.5917C188.928 57.5638 189.634 57.7588 190.248 58.1768C190.898 58.5446 191.299 59.0188 191.451 59.5994C191.842 61.0991 191.119 63.834 189.28 67.8038C187.517 71.6734 185.503 75.4541 183.239 79.1459C188.435 83.0166 193.257 87.5838 197.707 92.8475L199.831 95.19L202.067 97.6749C203.346 99.0949 204.168 100.506 204.534 101.909C204.812 102.974 204.764 103.854 204.391 104.551C204.006 105.199 203.388 105.538 202.539 105.567C201.689 105.597 200.312 104.571 198.407 102.49L190.175 93.5499C186.779 89.8117 183.222 86.4208 179.503 83.3773C177.436 86.0858 175.811 87.9733 174.627 89.0399C175.648 92.3729 176.43 95.0796 176.973 97.1599C177.364 98.6597 177.712 100.185 178.016 101.737C178.537 104.892 177.623 106.511 175.274 106.593Z" fill="black"/>
<path d="M113.861 122.822C114.055 120.667 115.002 119.56 116.701 119.501C117.85 119.461 118.845 120.28 119.687 121.96C122.235 130.756 124.607 139.363 126.804 147.781C129.101 156.587 130.453 161.958 130.858 163.897C131.149 165.4 131.096 166.452 130.698 167.052C130.287 167.603 129.357 167.904 127.908 167.955C126.609 168 125.757 167.249 125.353 165.7L121.073 149.3C120.631 147.606 119.868 144.875 118.783 141.105L117.251 135.812C116.247 138.728 114.604 141.128 112.323 143.014C110.042 144.9 107.152 145.905 103.654 146.027C100.157 146.149 96.8986 144.871 93.8803 142.194C94.7904 146.068 95.6494 149.553 96.4574 152.649L99.8653 165.419C100.156 166.532 99.9832 167.416 99.3478 168.073C98.7498 168.68 97.8761 169.003 96.7268 169.043C95.3776 169.091 94.4947 168.316 94.0781 166.719C93.3706 163.815 91.5965 156.92 88.7559 146.034L83.3777 125.425C83.1504 124.554 83.217 123.746 83.5772 123.001C83.9749 122.206 84.5485 121.795 85.298 121.769C86.1475 121.739 86.9289 121.932 87.6421 122.346C88.4054 122.759 88.913 123.352 89.1649 124.124C90.7157 129.294 92.6191 133.206 94.8751 135.861C97.1312 138.516 99.4085 139.804 101.707 139.724C103.806 139.65 105.591 139.246 107.064 138.511C108.523 137.728 109.633 136.859 110.392 135.905C111.189 134.901 111.823 133.561 112.293 131.884C112.999 129.565 113.521 126.544 113.861 122.822Z" fill="black"/>
<path d="M137.456 158.248L136.13 153.168L133.047 142.51C132.246 142.148 131.726 141.507 131.486 140.588C131.284 139.814 131.37 139.078 131.742 138.382C130.419 134.083 128.987 128.982 127.447 123.08C127.444 121.908 127.672 121.046 128.133 120.493C128.644 119.938 129.48 119.567 130.641 119.38C137.313 119.44 144.497 119.336 152.192 119.067C154.192 119.388 155.35 120.153 155.665 121.362C156.195 123.394 154.456 124.651 150.447 125.133C149.71 125.207 148.517 125.274 146.868 125.331L141.996 125.501C141.296 125.526 138.622 125.424 133.974 125.195C135.628 131.533 136.814 135.69 137.531 137.667C139.293 137.654 144.396 137.501 152.841 137.206C154.728 137.481 155.836 138.248 156.164 139.506C156.48 140.716 156.001 141.684 154.729 142.412C154.467 142.568 154.218 142.674 153.98 142.731L140.956 142.967C140.357 142.987 139.72 143.059 139.046 143.18L142.603 155.651C143.322 158.409 143.771 160.419 143.949 161.682L161.282 160.857C162.944 161.044 163.914 161.669 164.192 162.733C164.381 163.459 164.221 164.197 163.711 164.947C163.25 165.695 162.596 166.182 161.747 166.407L142.634 167.367C141.485 167.407 140.635 167.242 140.084 166.87C139.521 166.451 139.113 165.757 138.861 164.789C138.745 163.573 138.277 161.392 137.456 158.248Z" fill="black"/>
<path d="M164.314 114.396C166.163 114.332 167.345 114.901 167.861 116.103L173.644 140.873C174.414 143.824 174.893 145.565 175.082 146.095C175.084 146.681 174.854 147.251 174.394 147.804C173.92 148.309 173.384 148.571 172.784 148.592C172.035 148.619 171.271 148.108 170.494 147.061C166.563 134.896 163.511 124.652 161.34 116.331C161.474 115.106 162.465 114.461 164.314 114.396ZM178.729 157.172C179.343 157.59 179.832 158.501 180.198 159.904C180.868 162.468 180.103 163.789 177.904 163.865C176.792 163.855 175.76 163.476 174.809 162.728C173.845 161.932 173.23 161.026 172.965 160.01C172.712 159.042 172.867 158.28 173.427 157.724C173.937 156.974 174.767 156.579 175.917 156.538C177.166 156.495 178.103 156.706 178.729 157.172Z" fill="black"/>
</g>
</svg>
